<mxfile host="Electron" agent="Mozilla/5.0 (Macintosh; Intel Mac OS X 10_15_7) AppleWebKit/537.36 (KHTML, like Gecko) draw.io/26.0.9 Chrome/128.0.6613.186 Electron/32.2.5 Safari/537.36" version="26.0.9">
  <diagram name="Page-1" id="OVsgKLRijwUMamsm8hrs">
    <mxGraphModel dx="1242" dy="907" grid="1" gridSize="10" guides="1" tooltips="1" connect="1" arrows="1" fold="1" page="1" pageScale="1" pageWidth="827" pageHeight="1169" math="0" shadow="0">
      <root>
        <mxCell id="0" />
        <mxCell id="1" parent="0" />
        <mxCell id="21FJlriPtsr9h7zgrNRu-1" value="" style="whiteSpace=wrap;html=1;aspect=fixed;fillColor=#f5f5f5;fontColor=#333333;strokeColor=#666666;" vertex="1" parent="1">
          <mxGeometry x="25" y="90" width="770" height="770" as="geometry" />
        </mxCell>
        <mxCell id="21FJlriPtsr9h7zgrNRu-2" value="more todos..." style="whiteSpace=wrap;html=1;aspect=fixed;" vertex="1" parent="1">
          <mxGeometry x="157.5" y="217.5" width="515" height="515" as="geometry" />
        </mxCell>
        <mxCell id="21FJlriPtsr9h7zgrNRu-3" value="&lt;font style=&quot;font-size: 20px;&quot;&gt;My&amp;nbsp;&lt;/font&gt;&lt;span style=&quot;font-size: 20px; background-color: transparent; color: light-dark(rgb(0, 0, 0), rgb(255, 255, 255));&quot;&gt;Todo App&lt;/span&gt;" style="rounded=1;whiteSpace=wrap;html=1;fillColor=#d5e8d4;strokeColor=#82b366;" vertex="1" parent="1">
          <mxGeometry x="170" y="130" width="490" height="70" as="geometry" />
        </mxCell>
        <mxCell id="21FJlriPtsr9h7zgrNRu-4" value="... Search Todo" style="rounded=1;whiteSpace=wrap;html=1;" vertex="1" parent="1">
          <mxGeometry x="170" y="230" width="410" height="30" as="geometry" />
        </mxCell>
        <mxCell id="21FJlriPtsr9h7zgrNRu-7" value="&lt;strike&gt;Todo 1... Crossed Out&lt;/strike&gt;" style="rounded=0;whiteSpace=wrap;html=1;" vertex="1" parent="1">
          <mxGeometry x="170" y="290" width="480" height="30" as="geometry" />
        </mxCell>
        <mxCell id="21FJlriPtsr9h7zgrNRu-8" value="Todo 2... Editable Field" style="rounded=0;whiteSpace=wrap;html=1;" vertex="1" parent="1">
          <mxGeometry x="170" y="330" width="480" height="30" as="geometry" />
        </mxCell>
        <mxCell id="21FJlriPtsr9h7zgrNRu-9" value="Todo 3... Instant Delete" style="rounded=0;whiteSpace=wrap;html=1;" vertex="1" parent="1">
          <mxGeometry x="170" y="370" width="480" height="30" as="geometry" />
        </mxCell>
        <mxCell id="21FJlriPtsr9h7zgrNRu-10" value="Todo 4... Draggable Todo" style="rounded=0;whiteSpace=wrap;html=1;" vertex="1" parent="1">
          <mxGeometry x="170" y="410" width="480" height="30" as="geometry" />
        </mxCell>
        <mxCell id="21FJlriPtsr9h7zgrNRu-11" value="::" style="rhombus;whiteSpace=wrap;html=1;fillColor=#e1d5e7;strokeColor=#9673a6;" vertex="1" parent="1">
          <mxGeometry x="170" y="410" width="36" height="30" as="geometry" />
        </mxCell>
        <mxCell id="21FJlriPtsr9h7zgrNRu-12" value="X" style="rhombus;whiteSpace=wrap;html=1;" vertex="1" parent="1">
          <mxGeometry x="614" y="290" width="36" height="30" as="geometry" />
        </mxCell>
        <mxCell id="21FJlriPtsr9h7zgrNRu-13" value="X" style="rhombus;whiteSpace=wrap;html=1;" vertex="1" parent="1">
          <mxGeometry x="614" y="330" width="36" height="30" as="geometry" />
        </mxCell>
        <mxCell id="21FJlriPtsr9h7zgrNRu-14" value="X" style="rhombus;whiteSpace=wrap;html=1;fillColor=#f8cecc;strokeColor=#b85450;" vertex="1" parent="1">
          <mxGeometry x="614" y="370" width="36" height="30" as="geometry" />
        </mxCell>
        <mxCell id="21FJlriPtsr9h7zgrNRu-15" value="X" style="rhombus;whiteSpace=wrap;html=1;" vertex="1" parent="1">
          <mxGeometry x="614" y="410" width="36" height="30" as="geometry" />
        </mxCell>
        <mxCell id="21FJlriPtsr9h7zgrNRu-16" value="::" style="rhombus;whiteSpace=wrap;html=1;" vertex="1" parent="1">
          <mxGeometry x="170" y="370" width="36" height="30" as="geometry" />
        </mxCell>
        <mxCell id="21FJlriPtsr9h7zgrNRu-17" value="::" style="rhombus;whiteSpace=wrap;html=1;" vertex="1" parent="1">
          <mxGeometry x="170" y="330" width="36" height="30" as="geometry" />
        </mxCell>
        <mxCell id="21FJlriPtsr9h7zgrNRu-18" value="::" style="rhombus;whiteSpace=wrap;html=1;" vertex="1" parent="1">
          <mxGeometry x="170" y="290" width="36" height="30" as="geometry" />
        </mxCell>
        <mxCell id="21FJlriPtsr9h7zgrNRu-19" value="Edit" style="rhombus;whiteSpace=wrap;html=1;" vertex="1" parent="1">
          <mxGeometry x="578" y="410" width="36" height="30" as="geometry" />
        </mxCell>
        <mxCell id="21FJlriPtsr9h7zgrNRu-20" value="Edit" style="rhombus;whiteSpace=wrap;html=1;" vertex="1" parent="1">
          <mxGeometry x="578" y="370" width="36" height="30" as="geometry" />
        </mxCell>
        <mxCell id="21FJlriPtsr9h7zgrNRu-21" value="Edit" style="rhombus;whiteSpace=wrap;html=1;fillColor=#ffe6cc;strokeColor=#d79b00;" vertex="1" parent="1">
          <mxGeometry x="578" y="330" width="36" height="30" as="geometry" />
        </mxCell>
        <mxCell id="21FJlriPtsr9h7zgrNRu-22" value="Edit" style="rhombus;whiteSpace=wrap;html=1;" vertex="1" parent="1">
          <mxGeometry x="578" y="290" width="36" height="30" as="geometry" />
        </mxCell>
        <mxCell id="21FJlriPtsr9h7zgrNRu-27" value="" style="html=1;shadow=0;dashed=0;shape=mxgraph.bootstrap.checkbox2;labelPosition=right;verticalLabelPosition=middle;align=left;verticalAlign=middle;gradientColor=#DEDEDE;fillColor=#EDEDED;checked=0;spacing=5;checkedFill=#0085FC;checkedStroke=#ffffff;sketch=0;" vertex="1" parent="1">
          <mxGeometry x="210" y="410" width="30" height="30" as="geometry" />
        </mxCell>
        <mxCell id="21FJlriPtsr9h7zgrNRu-28" value="" style="html=1;shadow=0;dashed=0;shape=mxgraph.bootstrap.checkbox2;labelPosition=right;verticalLabelPosition=middle;align=left;verticalAlign=middle;gradientColor=#DEDEDE;fillColor=#EDEDED;checked=0;spacing=5;checkedFill=#0085FC;checkedStroke=#ffffff;sketch=0;" vertex="1" parent="1">
          <mxGeometry x="210" y="370" width="30" height="30" as="geometry" />
        </mxCell>
        <mxCell id="21FJlriPtsr9h7zgrNRu-29" value="" style="html=1;shadow=0;dashed=0;shape=mxgraph.bootstrap.checkbox2;labelPosition=right;verticalLabelPosition=middle;align=left;verticalAlign=middle;gradientColor=#DEDEDE;fillColor=#EDEDED;checked=0;spacing=5;checkedFill=#0085FC;checkedStroke=#ffffff;sketch=0;" vertex="1" parent="1">
          <mxGeometry x="210" y="330" width="30" height="30" as="geometry" />
        </mxCell>
        <mxCell id="21FJlriPtsr9h7zgrNRu-32" value="" style="dashed=0;labelPosition=right;align=left;shape=mxgraph.gmdl.checkbox;strokeColor=none;fillColor=#B0B0B0;strokeWidth=2;aspect=fixed;sketch=0;html=1;" vertex="1" parent="1">
          <mxGeometry x="210" y="290" width="30" height="30" as="geometry" />
        </mxCell>
        <mxCell id="21FJlriPtsr9h7zgrNRu-33" value="Hide Done" style="rounded=1;whiteSpace=wrap;html=1;" vertex="1" parent="1">
          <mxGeometry x="580" y="230" width="70" height="30" as="geometry" />
        </mxCell>
        <mxCell id="21FJlriPtsr9h7zgrNRu-35" value="Create" style="rounded=1;whiteSpace=wrap;html=1;" vertex="1" parent="1">
          <mxGeometry x="590" y="680" width="70" height="30" as="geometry" />
        </mxCell>
        <mxCell id="21FJlriPtsr9h7zgrNRu-37" value="... Add Todo" style="rounded=1;whiteSpace=wrap;html=1;" vertex="1" parent="1">
          <mxGeometry x="170" y="680" width="420" height="30" as="geometry" />
        </mxCell>
      </root>
    </mxGraphModel>
  </diagram>
</mxfile>
